<svg width="72" height="72" viewBox="0 0 72 72" fill="none" xmlns="http://www.w3.org/2000/svg">
<circle cx="36" cy="36" r="36" fill="#009AD6"/>
<path d="M39.7563 48C39.5163 48 39.3123 47.928 39.1443 47.784C39.0003 47.616 38.9283 47.412 38.9283 47.172V41.988H27.2643C27.0243 41.988 26.8203 41.916 26.6523 41.772C26.5083 41.604 26.4363 41.4 26.4363 41.16V39.72C26.4363 39.624 26.4603 39.48 26.5083 39.288C26.5803 39.072 26.6883 38.856 26.8323 38.64L37.6323 23.412C37.9203 23.004 38.3643 22.8 38.9643 22.8H41.5563C41.7963 22.8 41.9883 22.884 42.1323 23.052C42.3003 23.196 42.3843 23.388 42.3843 23.628V38.856H45.6243C45.8883 38.856 46.0923 38.94 46.2363 39.108C46.4043 39.252 46.4883 39.444 46.4883 39.684V41.16C46.4883 41.4 46.4043 41.604 46.2363 41.772C46.0923 41.916 45.9003 41.988 45.6603 41.988H42.3843V47.172C42.3843 47.412 42.3003 47.616 42.1323 47.784C41.9883 47.928 41.7963 48 41.5563 48H39.7563ZM30.2883 38.928H38.9643V26.58L30.2883 38.928Z" fill="white"/>
</svg>
