<svg width="72" height="72" viewBox="0 0 72 72" fill="none" xmlns="http://www.w3.org/2000/svg">
<circle cx="36" cy="36" r="36" fill="#009AD6"/>
<path d="M27.592 48C27.352 48 27.148 47.928 26.98 47.784C26.836 47.616 26.764 47.412 26.764 47.172V46.02C26.764 45.804 26.824 45.564 26.944 45.3C27.064 45.036 27.304 44.748 27.664 44.436L35.296 36.804C36.52 35.772 37.48 34.896 38.176 34.176C38.896 33.432 39.4 32.724 39.688 32.052C40 31.38 40.156 30.684 40.156 29.964C40.156 28.596 39.772 27.516 39.004 26.724C38.236 25.908 37.096 25.5 35.584 25.5C34.624 25.5 33.796 25.704 33.1 26.112C32.404 26.496 31.852 27.036 31.444 27.732C31.06 28.404 30.808 29.172 30.688 30.036C30.64 30.348 30.508 30.564 30.292 30.684C30.1 30.804 29.92 30.864 29.752 30.864H27.88C27.664 30.864 27.484 30.804 27.34 30.684C27.196 30.54 27.124 30.372 27.124 30.18C27.148 29.268 27.34 28.356 27.7 27.444C28.06 26.508 28.588 25.668 29.284 24.924C30.004 24.18 30.88 23.58 31.912 23.124C32.968 22.644 34.192 22.404 35.584 22.404C37.48 22.404 39.028 22.752 40.228 23.448C41.452 24.12 42.352 25.02 42.928 26.148C43.504 27.276 43.792 28.512 43.792 29.856C43.792 30.912 43.612 31.884 43.252 32.772C42.892 33.636 42.364 34.488 41.668 35.328C40.996 36.144 40.156 36.984 39.148 37.848L32.236 44.868H43.468C43.732 44.868 43.936 44.94 44.08 45.084C44.248 45.228 44.332 45.432 44.332 45.696V47.172C44.332 47.412 44.248 47.616 44.08 47.784C43.936 47.928 43.732 48 43.468 48H27.592Z" fill="white"/>
</svg>
