<svg width="60" height="60" viewBox="0 0 60 60" fill="none" xmlns="http://www.w3.org/2000/svg">
<circle cx="30" cy="30" r="30" fill="#009AD6"/>
<path d="M30.2524 39.28C28.7777 39.28 27.5271 39.028 26.5004 38.524C25.4924 38.0013 24.7177 37.3293 24.1764 36.508C23.6537 35.6867 23.3737 34.8187 23.3364 33.904C23.3177 33.736 23.3644 33.6053 23.4764 33.512C23.5884 33.4187 23.7284 33.372 23.8964 33.372H25.4084C25.5764 33.372 25.7257 33.4093 25.8564 33.484C25.9871 33.5587 26.0897 33.7173 26.1644 33.96C26.3511 34.6507 26.6497 35.22 27.0604 35.668C27.4897 36.0973 27.9751 36.4147 28.5164 36.62C29.0764 36.8067 29.6551 36.9 30.2524 36.9C31.0551 36.9 31.7831 36.7413 32.4364 36.424C33.1084 36.088 33.6404 35.6027 34.0324 34.968C34.4244 34.3147 34.6204 33.5307 34.6204 32.616C34.6204 31.776 34.4244 31.0573 34.0324 30.46C33.6591 29.844 33.1364 29.3773 32.4644 29.06C31.8111 28.724 31.0737 28.556 30.2524 28.556C29.6364 28.556 29.1324 28.6307 28.7404 28.78C28.3484 28.9293 28.0124 29.1067 27.7324 29.312C27.4711 29.5173 27.2284 29.6947 27.0044 29.844C26.7991 29.9933 26.5657 30.068 26.3044 30.068H24.8484C24.6804 30.068 24.5311 30.012 24.4004 29.9C24.2697 29.7693 24.2137 29.62 24.2324 29.452L25.1284 20.1C25.1471 19.876 25.2124 19.708 25.3244 19.596C25.4551 19.4653 25.6231 19.4 25.8284 19.4H35.6004C35.7871 19.4 35.9364 19.4653 36.0484 19.596C36.1791 19.708 36.2444 19.8573 36.2444 20.044V21.136C36.2444 21.3413 36.1791 21.5 36.0484 21.612C35.9364 21.724 35.7871 21.78 35.6004 21.78H27.5364L27.0044 27.296C27.2657 27.128 27.6857 26.932 28.2644 26.708C28.8431 26.4653 29.6364 26.344 30.6444 26.344C31.5591 26.344 32.4177 26.484 33.2204 26.764C34.0417 27.044 34.7697 27.4547 35.4044 27.996C36.0391 28.5373 36.5337 29.2 36.8884 29.984C37.2431 30.7493 37.4204 31.636 37.4204 32.644C37.4204 34.0627 37.1031 35.2667 36.4684 36.256C35.8524 37.2453 35.0031 38.0013 33.9204 38.524C32.8564 39.028 31.6337 39.28 30.2524 39.28Z" fill="white"/>
</svg>
