<svg width="72" height="72" viewBox="0 0 72 72" fill="none" xmlns="http://www.w3.org/2000/svg">
<circle cx="36" cy="36" r="36" fill="#009AD6"/>
<path d="M35.936 48C35.696 48 35.492 47.928 35.324 47.784C35.18 47.616 35.108 47.412 35.108 47.172V27.012L29.132 31.62C28.94 31.764 28.736 31.824 28.52 31.8C28.304 31.776 28.124 31.668 27.98 31.476L27.044 30.288C26.9 30.072 26.84 29.856 26.864 29.64C26.912 29.424 27.032 29.244 27.224 29.1L35.072 23.052C35.24 22.932 35.396 22.86 35.54 22.836C35.684 22.812 35.84 22.8 36.008 22.8H37.844C38.084 22.8 38.276 22.884 38.42 23.052C38.564 23.196 38.636 23.388 38.636 23.628V47.172C38.636 47.412 38.564 47.616 38.42 47.784C38.276 47.928 38.084 48 37.844 48H35.936Z" fill="white"/>
</svg>
