<svg width="72" height="72" viewBox="0 0 72 72" fill="none" xmlns="http://www.w3.org/2000/svg">
<circle cx="36" cy="36" r="36" fill="#009AD6"/>
<path d="M35.9175 48.36C34.4055 48.36 33.0855 48.18 31.9575 47.82C30.8295 47.436 29.8815 46.932 29.1135 46.308C28.3455 45.684 27.7575 45 27.3495 44.256C26.9655 43.512 26.7615 42.744 26.7375 41.952C26.7375 41.736 26.8095 41.568 26.9535 41.448C27.0975 41.328 27.2775 41.268 27.4935 41.268H29.2575C29.4735 41.268 29.6655 41.316 29.8335 41.412C30.0015 41.508 30.1455 41.712 30.2655 42.024C30.5055 42.888 30.9135 43.56 31.4895 44.04C32.0895 44.52 32.7735 44.856 33.5415 45.048C34.3335 45.216 35.1255 45.3 35.9175 45.3C37.5735 45.3 38.9175 44.904 39.9495 44.112C40.9815 43.32 41.4975 42.156 41.4975 40.62C41.4975 39.06 41.0295 37.944 40.0935 37.272C39.1575 36.6 37.8615 36.264 36.2055 36.264H32.7855C32.5455 36.264 32.3415 36.192 32.1735 36.048C32.0295 35.904 31.9575 35.7 31.9575 35.436V34.464C31.9575 34.248 31.9935 34.068 32.0655 33.924C32.1615 33.756 32.2575 33.612 32.3535 33.492L39.3375 25.86H28.7175C28.4775 25.86 28.2735 25.788 28.1055 25.644C27.9615 25.5 27.8895 25.296 27.8895 25.032V23.664C27.8895 23.4 27.9615 23.196 28.1055 23.052C28.2735 22.884 28.4775 22.8 28.7175 22.8H43.0815C43.3455 22.8 43.5495 22.884 43.6935 23.052C43.8615 23.196 43.9455 23.4 43.9455 23.664V24.96C43.9455 25.128 43.8975 25.284 43.8015 25.428C43.7295 25.548 43.6455 25.668 43.5495 25.788L36.6015 33.528L37.1775 33.564C38.7615 33.612 40.1415 33.9 41.3175 34.428C42.5175 34.956 43.4415 35.748 44.0895 36.804C44.7615 37.836 45.0975 39.144 45.0975 40.728C45.0975 42.336 44.7015 43.716 43.9095 44.868C43.1175 45.996 42.0255 46.86 40.6335 47.46C39.2415 48.06 37.6695 48.36 35.9175 48.36Z" fill="white"/>
</svg>
