<svg width="1440" height="1170" viewBox="0 0 1440 1170" fill="none" xmlns="http://www.w3.org/2000/svg">
<g opacity="0.3" clip-path="url(#clip0_915_1684)">
<path d="M1449 -225H-9V1233H1449V-225Z" fill="white"/>
<path d="M1816.25 1078.77C1527.11 1460.85 1171.71 1633.81 750.05 1597.67C328.388 1561.53 -2.05832 1370.49 -241.287 1024.56C-480.516 678.62 -499.448 298.263 -298.083 -116.515C-96.7173 -531.293 213.076 -687.05 631.296 -583.786C1049.52 -480.521 1423.85 -273.132 1754.3 38.3815C2084.74 349.895 2105.39 696.691 1816.25 1078.77Z" fill="white"/>
<path d="M1704.19 1020.01C1444.61 1363.04 1125.54 1518.32 746.978 1485.87C368.419 1453.43 71.752 1281.92 -143.022 971.343C-357.797 660.77 -374.793 319.294 -194.012 -53.085C-13.2306 -425.464 264.895 -565.299 640.363 -472.59C1015.83 -379.882 1351.9 -193.693 1648.57 85.9776C1945.23 365.648 1963.78 676.994 1704.19 1020.01Z" fill="#E7F5FB"/>
<path d="M1597 963.816C1365.69 1269.48 1081.37 1407.85 744.04 1378.94C406.71 1350.02 142.353 1197.19 -49.0298 920.445C-240.413 643.696 -255.558 339.411 -94.4661 7.58813C66.6262 -324.234 314.46 -448.84 649.037 -366.229C983.613 -283.617 1283.08 -117.706 1547.44 131.505C1811.79 380.716 1828.31 658.153 1597 963.816Z" fill="#CFEBF7"/>
<path d="M1484.94 905.061C1283.19 1171.67 1035.19 1292.36 740.968 1267.14C446.742 1241.92 216.164 1108.62 49.2351 867.232C-117.694 625.846 -130.904 360.441 9.60456 71.018C150.113 -218.405 366.279 -327.089 658.104 -255.033C949.929 -182.978 1211.13 -38.2662 1441.71 179.101C1672.29 396.469 1686.7 638.455 1484.94 905.061Z" fill="#B7E1F3"/>
<path d="M1377.75 848.862C1204.27 1078.11 991.027 1181.89 738.03 1160.2C485.032 1138.52 286.765 1023.89 143.228 816.333C-0.309725 608.772 -11.6688 380.558 109.15 131.691C229.97 -117.176 415.845 -210.63 666.778 -148.671C917.71 -86.7129 1142.31 37.7206 1340.58 224.629C1538.84 411.537 1551.24 619.615 1377.75 848.862Z" fill="#9FD7EF"/>
<path d="M1270.56 792.661C1125.35 984.55 946.86 1071.42 735.092 1053.27C523.323 1035.11 357.366 939.171 237.22 765.434C117.074 591.698 107.566 400.674 208.696 192.363C309.826 -15.9476 465.411 -94.1722 675.451 -42.3106C885.49 9.55103 1073.49 113.706 1239.45 270.156C1405.4 426.605 1415.78 600.773 1270.56 792.661Z" fill="#87CDEB"/>
<path d="M1158.5 733.908C1042.85 886.739 900.685 955.926 732.02 941.469C563.355 927.012 431.177 850.596 335.485 712.222C239.793 573.848 232.221 421.705 312.767 255.794C393.313 89.8828 517.23 27.58 684.518 68.8857C851.806 110.191 1001.54 193.147 1133.72 317.753C1265.9 442.358 1274.16 581.077 1158.5 733.908Z" fill="#6FC3E7"/>
<path d="M1051.31 677.708C963.928 793.18 856.518 845.455 729.082 834.532C601.646 823.609 501.778 765.872 429.478 661.323C357.177 556.774 351.456 441.821 412.313 316.466C473.17 191.111 566.796 144.038 693.192 175.247C819.587 206.455 932.719 269.133 1032.59 363.279C1132.46 457.426 1138.7 562.235 1051.31 677.708Z" fill="#57B9E3"/>
<path d="M939.251 618.954C881.423 695.369 810.342 729.963 726.01 722.734C641.677 715.506 575.588 677.298 527.743 608.111C479.897 538.924 476.11 462.853 516.383 379.897C556.657 296.941 618.615 265.79 702.259 286.443C785.903 307.096 860.77 348.574 926.859 410.876C992.948 473.179 997.079 542.538 939.251 618.954Z" fill="#3FAFDF"/>
<path d="M832.061 562.754C802.505 601.811 766.175 619.492 723.072 615.797C679.969 612.103 646.19 592.574 621.735 557.212C597.281 521.85 595.345 482.969 615.929 440.569C636.513 398.17 668.181 382.248 710.932 392.804C753.684 403.36 791.949 424.559 825.728 456.403C859.507 488.247 861.618 523.697 832.061 562.754Z" fill="#27A5DB"/>
</g>
<defs>
<clipPath id="clip0_915_1684">
<rect width="1458" height="1458" fill="white" transform="translate(-9 -225)"/>
</clipPath>
</defs>
</svg>
