<svg width="253" height="48" viewBox="0 0 253 48" fill="none" xmlns="http://www.w3.org/2000/svg">
<path fill-rule="evenodd" clip-rule="evenodd" d="M0 23.9538V47.9076H5.82291H11.6458L11.9281 39.3526C12.3042 27.9565 13.7675 27.9164 20.7704 39.1082L25.9711 47.4187L33.0688 47.7071L40.1664 47.9956L36.5443 42.3298C34.5516 39.2138 30.7712 33.2293 28.1426 29.032L23.362 21.401L28.4952 14.8553C31.3173 11.2553 35.125 6.44112 36.9566 4.15525L40.2856 0H33.4595H26.6334L20.0534 8.3105C16.4343 12.8813 13.0798 16.621 12.5973 16.621C12.1157 16.621 11.722 12.8813 11.722 8.3105V0H5.861H0V23.9538ZM42.7365 0.561203C41.8427 1.46754 41.7772 28.7142 42.6427 39.8415L43.2698 47.9076H48.9863H54.7027V39.1082C54.7027 31.3756 54.9098 30.3099 56.4122 30.3206C57.3519 30.3275 59.1112 31.8615 60.3195 33.7289C63.0019 37.8734 63.0165 38.1305 60.5823 38.1305C58.4743 38.1305 57.2444 41.2162 57.7963 45.1192C58.1158 47.3737 58.3561 47.4236 70.1631 47.6935L82.2055 47.9692L75.3452 37.9164L68.4858 27.8646L71.2454 24.9315C76.5447 19.2989 77.5401 14.3791 74.6243 8.22935C71.7983 2.27023 67.5266 0.538716 54.7027 0.154477C48.5242 -0.0303089 43.1399 0.152522 42.7365 0.561203ZM126.988 8.7182C126.988 16.0598 127.249 17.5987 128.492 17.5987C129.751 17.5987 129.949 16.2231 129.713 9.12297C129.523 3.42197 129.031 0.514273 128.209 0.241493C127.292 -0.0625732 126.988 2.04927 126.988 8.7182ZM160.673 2.16073C160.356 3.4249 160.23 7.30151 160.393 10.7753C160.634 15.9278 161.012 17.1519 162.438 17.4237C164.027 17.7268 164.161 16.9779 163.903 9.20216C163.717 3.58329 163.213 0.51134 162.435 0.254203C161.783 0.0381305 160.99 0.895578 160.673 2.16073ZM246.802 4.58153L244.157 8.96556L246.624 10.9092C250.179 13.7074 249.688 14.6656 244.697 14.6656C240.325 14.6656 240.301 14.647 240.301 11.2436C240.301 8.8541 239.86 7.82164 238.836 7.82164C237.883 7.82164 237.371 8.77784 237.371 10.5592C237.371 16.183 233.031 16.7315 230.533 11.4235C228.406 6.90651 224.137 7.04437 220.98 11.7325C218.116 15.9865 216.726 16.0559 215.676 11.9994C214.757 8.44738 211.871 6.43428 209.005 7.34452C206.317 8.19904 206.615 9.77706 209.465 9.77706C211.012 9.77706 212.066 10.4849 212.485 11.8058C213.35 14.5346 212.716 14.9657 207.834 14.9716C203.746 14.9775 203.664 14.912 203.367 11.3991C203.086 8.07976 202.836 7.82164 199.899 7.82164C195.801 7.82164 194.39 9.33513 194.39 13.7319C194.39 19.4837 189.487 22.3895 185.145 19.2119C183.759 18.1971 183.488 17.1636 183.971 14.7428C184.501 12.0962 184.33 11.6445 182.901 11.9153C181.725 12.1382 181.111 13.3437 180.903 15.8369C180.492 20.7733 183.852 22.9771 191.215 22.5997C194.762 22.4178 197.32 19.0936 197.32 14.6656C197.32 9.72622 199.968 9.10244 200.434 13.9323L200.739 17.1098L225.113 17.3093C241.372 17.4432 249.91 17.1587 250.755 16.4567C252.6 14.9257 252.308 12.018 250.09 9.79759C248.164 7.86955 248.165 7.85098 250.118 4.53558C251.669 1.90653 251.804 1.10285 250.764 0.70297C249.955 0.39206 248.428 1.88697 246.802 4.58153ZM135.373 7.69063C135.084 8.157 135.718 9.32536 136.78 10.2864C139.583 12.8255 139.154 14.4974 135.611 14.8484C133.906 15.0166 132.34 15.6756 132.131 16.313C131.85 17.1714 134.988 17.4247 144.244 17.2907L156.736 17.1098L157.67 14.4505C159.472 9.31753 152.798 5.53968 149.119 9.60987C148.23 10.5934 147.502 11.8253 147.502 12.3474C147.502 14.0741 145.413 15.4253 143.513 14.9276C142.483 14.6578 141.641 13.7065 141.641 12.8138C141.641 9.09853 136.897 5.22193 135.373 7.69063ZM120.151 11.0803C120.151 12.8734 119.888 14.603 119.566 14.9237C118.244 16.2485 116.243 14.2647 116.243 11.6279C116.243 9.76532 115.743 8.79935 114.778 8.79935C113.801 8.79935 113.313 9.77706 113.313 11.7325C113.313 13.9792 112.871 14.6656 111.425 14.6656C110.386 14.6656 109.258 13.7856 108.917 12.7102C108.576 11.6347 107.632 10.7548 106.82 10.7548C105.706 10.7548 105.492 11.4362 105.951 13.5275C106.382 15.4888 106.009 16.9798 104.679 18.6253C103.013 20.6834 102.503 20.8163 100.24 19.7839C98.1865 18.8482 97.6834 17.9399 97.6834 15.175C97.6834 12.7669 97.2429 11.7325 96.2181 11.7325C94.1873 11.7325 94.242 18.903 96.2875 20.9513C99.1643 23.8296 108.429 22.365 108.429 19.031C108.429 18.0416 109.562 17.5743 112.092 17.5195C123.81 17.2653 123.081 17.6495 123.081 11.7325C123.081 8.90788 122.674 7.82164 121.616 7.82164C120.607 7.82164 120.151 8.83553 120.151 11.0803ZM168.992 12.7199C168.992 16.4079 168.51 18.0318 167.039 19.2921C165.964 20.2131 165.085 21.3081 165.085 21.7266C165.085 23.1912 168.033 22.4696 169.969 20.5318C172.469 18.0299 172.862 7.82164 170.458 7.82164C169.35 7.82164 168.992 9.01738 168.992 12.7199ZM154.234 14.2129C153.384 15.0625 152.022 15.4419 151.095 15.086C149.032 14.2941 149.023 13.2831 151.061 11.2436C152.519 9.78292 152.805 9.77706 154.2 11.1742C155.581 12.5557 155.584 12.8607 154.234 14.2129ZM227.372 14.3371C226.017 15.6932 225.49 15.7518 224.208 14.6861C222.812 13.5256 222.824 13.2362 224.338 11.5614C225.836 9.90416 226.16 9.86896 227.502 11.2133C228.845 12.5577 228.832 12.8764 227.372 14.3371ZM63.0097 12.7141C64.4662 14.3253 64.5853 15.1026 63.6827 17.0864C62.4871 19.7135 59.456 20.8662 55.0651 20.3637C52.4658 20.0664 52.2391 19.7027 51.9627 15.3989L51.6647 10.7548H56.4512C60.0001 10.7548 61.6959 11.2612 63.0097 12.7141ZM209.573 20.4644C208.85 21.6347 210.687 22.7933 211.989 21.9886C213.082 21.313 212.364 19.5541 210.996 19.5541C210.522 19.5541 209.882 19.9638 209.573 20.4644ZM234.9 20.5778C234.2 21.7119 235.459 22.1959 238.836 22.0903C240.448 22.0394 241.662 21.5662 241.534 21.0383C241.249 19.864 235.584 19.47 234.9 20.5778ZM185.598 25.828C185.598 26.6796 186.295 27.3758 187.145 27.3758C188.87 27.3758 188.57 25.2708 186.759 24.6665C186.12 24.4534 185.598 24.9765 185.598 25.828ZM190.157 25.0948C189.033 26.2191 189.445 27.3758 190.971 27.3758C191.777 27.3758 192.436 26.7158 192.436 25.9092C192.436 24.382 191.281 23.9694 190.157 25.0948ZM169.198 31.0842C167.051 31.4186 166.973 31.751 167.245 39.426C167.468 45.7527 167.833 47.4187 168.992 47.4187C170.133 47.4187 170.521 45.8515 170.745 40.3304C171.033 33.2107 171.513 32.2447 173.681 34.4152C175.238 35.9737 175.162 36.704 173.241 38.6272C171.741 40.128 171.771 40.4946 173.669 43.8305C175.31 46.7158 176.367 47.4764 179.061 47.715C181.758 47.9525 182.516 47.6172 182.938 46.004C183.639 43.3182 188.079 43.283 189.506 45.9522C190.679 48.1461 193.926 48.6985 193.107 46.5662C192.825 45.828 191.652 42.0609 190.502 38.195C188.719 32.2037 188.117 31.2113 186.418 31.4704C184.881 31.706 183.908 33.417 182.16 38.9489C180.914 42.8939 179.671 46.3442 179.399 46.617C179.127 46.8888 178.175 45.6999 177.285 43.9752C176.119 41.7207 175.962 40.5406 176.724 39.778C178.167 38.3339 178.064 33.7005 176.563 32.5253C174.928 31.2455 171.93 30.6589 169.198 31.0842ZM244.968 31.6943C243.681 32.3327 242.618 33.8687 242.446 35.3372C242.209 37.3669 242.859 38.2948 245.698 39.9706C249.875 42.4373 249.714 44.3614 245.295 44.7965C241.495 45.17 241.691 47.277 245.568 47.7345C249.225 48.1657 253 45.52 253 42.5273C253 40.7029 252.045 39.6381 249.029 38.0983C244.593 35.8329 244.401 33.7504 248.622 33.6927C250.148 33.6722 251.556 33.1775 251.751 32.5928C252.269 31.0353 247.554 30.4115 244.968 31.6943ZM94.7529 39.5971C94.7529 46.3325 95.0303 47.9076 96.2181 47.9076C97.2761 47.9076 97.6834 46.8213 97.6834 43.9968C97.6834 39.1698 98.7657 39.0163 100.92 43.5382C102.458 46.7666 104.961 48.7719 106.069 47.6631C106.335 47.3953 105.581 45.5259 104.392 43.5099C102.175 39.7467 102.174 39.7643 104.994 32.9976C105.498 31.7872 105.254 31.2866 104.157 31.2866C103.305 31.2866 101.609 33.1569 100.389 35.4418L98.1718 39.5971L97.8719 35.4418C97.6668 32.6123 97.1217 31.2866 96.1625 31.2866C95.045 31.2866 94.7529 33.0093 94.7529 39.5971ZM108.429 39.5971C108.429 46.177 108.722 47.9076 109.835 47.9076C110.754 47.9076 111.346 46.6395 111.545 44.2412C111.807 41.0627 112.173 40.5748 114.29 40.5748C116.406 40.5748 116.772 41.0627 117.034 44.2412C117.233 46.6395 117.825 47.9076 118.744 47.9076C119.858 47.9076 120.151 46.177 120.151 39.5971C120.151 33.0249 119.858 31.2866 118.747 31.2866C117.88 31.2866 117.227 32.4931 117.037 34.4426C116.782 37.0746 116.327 37.5977 114.29 37.5977C112.252 37.5977 111.797 37.0746 111.542 34.4426C111.352 32.4931 110.699 31.2866 109.832 31.2866C108.722 31.2866 108.429 33.0249 108.429 39.5971ZM123.081 39.5971C123.081 46.3325 123.359 47.9076 124.546 47.9076C125.734 47.9076 126.012 46.3325 126.012 39.5971C126.012 32.8617 125.734 31.2866 124.546 31.2866C123.359 31.2866 123.081 32.8617 123.081 39.5971ZM129.736 36.664C129.635 39.6215 129.525 43.2146 129.492 44.6489C129.458 46.0822 129.957 47.4314 130.601 47.6465C131.4 47.9125 131.865 46.2337 132.066 42.3503L132.361 36.664L134.021 40.3304C134.933 42.3474 136.328 43.9968 137.119 43.9968C137.911 43.9968 139.141 42.3474 139.853 40.3304L141.148 36.664L141.638 41.9651C141.915 44.9539 142.662 47.4422 143.35 47.669C144.264 47.9692 144.571 45.9551 144.571 39.6782C144.571 32.1421 144.386 31.2866 142.751 31.2866C141.491 31.2866 140.41 32.6475 139.249 35.6921C138.324 38.1159 137.242 39.8972 136.846 39.6528C136.449 39.4074 135.538 37.4246 134.82 35.2463C133.922 32.5263 132.951 31.2866 131.716 31.2866C130.211 31.2866 129.89 32.1606 129.736 36.664ZM148.021 32.2154C147.667 32.7874 148.066 33.5197 148.906 33.8423C150.023 34.2715 150.432 35.8114 150.432 39.5873C150.432 43.9244 150.121 44.8278 148.479 45.258C145.711 45.9825 146.05 47.9076 148.945 47.9076C152.677 47.9076 154.498 44.2627 154.147 37.4901C153.869 32.1206 153.695 31.7569 151.257 31.4753C149.831 31.31 148.374 31.6425 148.021 32.2154ZM156.703 32.6055C156.425 33.331 156.329 36.9563 156.49 40.6618C156.728 46.1614 157.095 47.4588 158.491 47.7247C160.012 48.0151 160.201 47.1244 160.201 39.6684C160.201 32.7932 159.932 31.2866 158.705 31.2866C157.882 31.2866 156.981 31.88 156.703 32.6055ZM195.367 39.5971C195.367 44.4856 195.769 47.9076 196.344 47.9076C196.881 47.9076 197.326 46.6982 197.334 45.2189C197.341 43.7396 197.624 41.4928 197.964 40.2248C198.567 37.9702 198.609 37.9858 199.857 40.958C201.503 44.8767 203.572 44.8239 205.261 40.8192L206.6 37.6417L207.089 42.5302C207.437 46.0069 208 47.4187 209.042 47.4187C209.848 47.4187 210.464 46.8693 210.41 46.1966C210.356 45.5249 210.247 41.8947 210.166 38.1305C210.039 32.19 209.782 31.2866 208.222 31.2866C206.987 31.2866 206.016 32.5263 205.119 35.2463C204.401 37.4246 203.489 39.4074 203.093 39.6528C202.696 39.8972 201.615 38.1159 200.69 35.6921C199.528 32.6475 198.447 31.2866 197.188 31.2866C195.553 31.2866 195.367 32.1401 195.367 39.5971ZM213.359 32.6055C213.082 33.331 212.985 36.9612 213.146 40.6716L213.438 47.4187L217.579 47.7189C220.933 47.9623 222.184 47.5536 224.173 45.563C227.251 42.4823 227.434 37.4676 224.601 33.8628C222.955 31.7676 221.763 31.2866 218.221 31.2866C215.467 31.2866 213.68 31.7715 213.359 32.6055ZM231.607 33.4864C227.451 44.4954 226.715 51.4899 230.27 46.1966C232.164 43.3779 236.375 43.2263 237.087 45.9522C237.617 47.976 240.301 48.723 240.301 46.8458C240.301 46.2611 239.355 42.5214 238.197 38.5353C236.548 32.8558 235.697 31.2866 234.265 31.2866C233.26 31.2866 232.064 32.277 231.607 33.4864ZM220.829 34.2539C222.183 34.9794 222.718 36.3081 222.718 38.9469C222.718 42.9633 221.35 44.9745 218.615 44.9745C217.118 44.9745 216.857 44.1053 216.857 39.1082C216.857 33.066 217.391 32.4129 220.829 34.2539ZM235.349 40.3304C235.386 41.2709 234.758 42.0413 233.952 42.0413C232.411 42.0413 232.033 39.4739 233.146 36.5711C233.757 34.9755 233.858 34.9872 234.543 36.7353C234.948 37.7717 235.311 39.3898 235.349 40.3304ZM187.795 38.6428C188.295 41.2523 186.991 42.8489 185.546 41.4019C184.579 40.434 185.418 36.1751 186.575 36.1751C186.988 36.1751 187.536 37.2858 187.795 38.6428Z" fill="#009AD6"/>
</svg>
