<svg width="264" height="48" viewBox="0 0 264 48" fill="none" xmlns="http://www.w3.org/2000/svg">
<path fill-rule="evenodd" clip-rule="evenodd" d="M15.4669 1.51298C5.8271 4.8765 -0.974929 15.8504 0.114522 26.278C2.15639 45.8245 25.2409 54.8915 40.088 41.9799C46.025 36.816 48.8036 30.0381 48.1719 22.2616C46.8501 5.99031 31.1605 -3.96295 15.4669 1.51298ZM33.9808 5.42668C43.5643 10.3582 48.2127 22.3624 44.2009 31.8211C41.19 38.9188 33.317 44.9929 27.1273 44.9929H24.2146L29.4034 36.1112C34.0187 28.2109 34.9255 27.1969 37.6088 26.93C40.3105 26.6611 43.5672 23.8219 43.5672 21.7344C43.5672 21.3244 40.0938 20.9884 35.8478 20.9884C28.9719 20.9884 27.9621 21.2217 26.6151 23.1229C24.4722 26.1445 24.7064 26.7495 28.0175 26.7495C29.6211 26.7495 30.9331 26.9693 30.9331 27.2372C30.9331 28.739 20.8141 44.9891 19.8899 44.9718C19.2825 44.9603 17.0171 44.1576 14.8576 43.1878C10.5134 41.2386 6.07006 36.5616 4.05929 31.8211C0.478969 23.3783 4.35279 11.4643 12.2977 6.48576C14.7196 4.96867 16.8557 3.87983 17.0452 4.06706C17.2348 4.2543 15.1443 8.24578 12.4007 12.9372C9.65621 17.6296 6.78826 22.6562 6.0273 24.109L4.64337 26.7495L12.6855 26.7437C20.5993 26.737 20.7548 26.6909 22.3836 23.8632L24.0397 20.9884H17.7673C14.3182 20.9884 11.4959 20.757 11.4959 20.4737C11.4959 20.1904 13.7876 16.0857 16.5885 11.352C21.5236 3.0099 21.7889 2.74489 25.2234 2.74489C27.2109 2.74489 31.0575 3.92303 33.9808 5.42668ZM63.154 22.397C62.5174 25.8123 61.739 29.269 61.4241 30.0784C60.9566 31.2825 61.7565 31.5504 65.8159 31.5504C68.5459 31.5504 70.7792 31.1183 70.7792 30.5902C70.7792 30.0621 69.4672 29.63 67.8636 29.63C64.5243 29.63 64.6118 30.0525 66.3194 22.1886C67.5177 16.6723 67.4895 16.1875 65.9675 16.1875C64.6983 16.1875 64.0423 17.6364 63.154 22.397ZM76.4228 23.6558C72.1145 30.6584 71.7102 33.6224 75.5287 30.209C77.7843 28.1917 84.3852 28.1177 84.3852 30.1101C84.3852 31.1375 85.4426 31.5504 88.0714 31.5504C91.3923 31.5504 91.85 31.2402 92.6878 28.4298C93.199 26.7139 94.0552 25.3092 94.5897 25.3092C95.1242 25.3092 95.9804 26.7139 96.4916 28.4298C97.0932 30.449 98.0369 31.5504 99.1642 31.5504C100.122 31.5504 100.907 31.4399 100.907 31.3036C100.907 31.1682 100.475 29.5705 99.9475 27.7519C99.1205 24.904 99.2838 24.1358 101.129 22.1943C104.202 18.9633 102.531 16.7549 96.7278 16.3766C92.2961 16.0886 92.2553 16.1135 91.299 19.7372C90.7683 21.7459 90.0414 25.0096 89.6818 26.9895C89.3222 28.9704 88.7012 30.5902 88.3018 30.5902C87.9023 30.5902 87.015 27.3496 86.3289 23.3888C85.2365 17.0775 84.8293 16.1903 83.0333 16.2143C81.5318 16.2345 79.764 18.224 76.4228 23.6558ZM105.766 18.1078C103.048 20.7934 103.34 22.7292 106.752 24.6342C110.187 26.5526 110.174 29.028 106.728 29.437C105.397 29.5954 103.665 29.9421 102.878 30.209C101.618 30.6353 101.618 30.8005 102.878 31.5869C105.221 33.0511 108.254 32.6392 111.034 30.4798C114.32 27.9247 114.025 24.8243 110.326 23.0787C106.64 21.3388 107.213 18.683 111.362 18.2874C115.596 17.8822 115.394 16.1875 111.111 16.1875C109.005 16.1875 106.969 16.9191 105.766 18.1078ZM116.606 22.397C115.97 25.8123 115.191 29.269 114.876 30.0784C114.41 31.2815 115.203 31.5504 119.211 31.5504C121.909 31.5504 124.387 31.1183 124.717 30.5902C125.075 30.0189 123.917 29.63 121.859 29.63C119.957 29.63 118.4 29.2335 118.4 28.7486C118.4 26.2425 119.819 24.8291 122.334 24.8291C123.849 24.8291 125.359 24.397 125.689 23.8689C126.041 23.3072 125.029 22.9087 123.249 22.9087C120.652 22.9087 120.254 22.5938 120.519 20.7483C120.749 19.1458 121.583 18.5072 123.745 18.2739C129.165 17.6901 128.726 16.1875 123.136 16.1875H117.765L116.606 22.397ZM128.936 23.6289C128.082 27.7221 127.53 31.2316 127.709 31.4294C127.888 31.6262 128.665 31.5494 129.434 31.2575C130.253 30.9464 131.114 28.7063 131.511 25.8575C131.884 23.1795 132.521 20.9884 132.928 20.9884C133.336 20.9884 134.282 23.2563 135.033 26.0293C136.202 30.3501 136.732 31.0703 138.748 31.0703C140.894 31.0703 141.238 30.4231 142.703 23.6289C144.22 16.5965 144.217 16.1875 142.622 16.1875C141.345 16.1875 140.78 17.3051 140.294 20.7944C139.27 28.1523 138.307 28.4595 136.476 22.0119C135.085 17.1169 134.476 16.1875 132.655 16.1875C130.735 16.1875 130.313 17.0324 128.936 23.6289ZM155.868 17.7141C154.87 18.6993 154.427 20.1636 154.745 21.4176C155.089 22.7724 154.608 24.0533 153.358 25.1114C149.009 28.7908 153.356 34.1457 158.728 31.727C160.357 30.9935 161.953 30.9349 163.588 31.5485C166.003 32.4558 167.068 31.343 164.997 30.0775C164.316 29.6617 164.478 28.689 165.483 27.1748C167.341 24.372 167.364 23.8689 165.639 23.8689C164.895 23.8689 164.004 24.5939 163.66 25.4801C163.075 26.9866 162.929 26.9866 161.401 25.4763C159.87 23.9649 159.907 23.7652 161.977 22.3326C163.362 21.3744 164.076 20.0301 163.89 18.7348C163.498 16.0204 158.258 15.353 155.868 17.7141ZM175.254 17.1476C174.913 17.6921 175.73 18.1078 177.14 18.1078C179.986 18.1078 180.041 18.5121 178.223 26.0293C176.998 31.0914 177.024 31.5504 178.527 31.5504C179.763 31.5504 180.52 29.9526 181.598 25.0691C182.911 19.1227 183.249 18.5629 185.701 18.2845C187.171 18.1174 188.374 17.5768 188.374 17.0843C188.374 15.8735 176.013 15.934 175.254 17.1476ZM190.075 17.2244C187.837 18.5121 185.458 23.1488 185.458 26.2214C185.458 27.5685 186.383 29.583 187.512 30.6987C192.255 35.3844 201.98 29.6223 201.98 22.1252C201.98 20.1271 201.455 17.9734 200.814 17.3397C199.401 15.9436 192.431 15.8687 190.075 17.2244ZM205.011 20.4535C203.329 27.0519 203.614 30.3588 205.969 31.6041C208.442 32.9119 213.965 32.0391 215.609 30.0823C216.812 28.6506 219.646 16.9988 218.957 16.318C217.642 15.0179 215.727 17.6748 215.126 21.6317C214.132 28.1801 213.053 29.8038 209.933 29.4476C207.739 29.197 207.332 28.6929 207.367 26.2694C207.389 24.6851 207.737 21.769 208.139 19.7881C209.244 14.3468 206.413 14.9488 205.011 20.4535ZM221.929 18.3479C220.296 25.4513 219.518 29.293 219.497 30.3501C219.466 31.9306 228.376 31.9719 229.969 30.3982C231.469 28.9166 231.469 25.5425 229.969 24.0609C229.101 23.2035 229.093 22.9087 229.935 22.9087C230.557 22.9087 231.551 22.0167 232.14 20.9269C233.757 17.9436 231.726 16.1875 226.662 16.1875C223.064 16.1875 222.351 16.513 221.929 18.3479ZM235.071 22.6245C234.356 26.2137 233.591 29.6339 233.37 30.2263C233.148 30.8178 233.644 31.559 234.471 31.873C235.538 32.2772 236.143 31.6848 236.552 29.8364C237.555 25.3063 237.832 24.8493 239.251 25.387C240.013 25.676 240.893 27.1806 241.207 28.7313C241.603 30.6901 242.354 31.5504 243.667 31.5504C245.366 31.5504 245.46 31.2037 244.593 28.1024C243.812 25.3082 243.934 24.3212 245.235 22.9001C246.119 21.9361 246.697 20.1386 246.52 18.9067C246.239 16.9441 245.593 16.633 241.285 16.3833L236.369 16.1001L235.071 22.6245ZM250.498 18.9941C248.293 21.1727 247.657 22.6716 247.657 25.6933C247.657 36.0767 262.437 33.7818 263.877 23.1747C264.54 18.2903 262.541 16.1875 257.232 16.1875C254.225 16.1875 252.692 16.826 250.498 18.9941ZM98.4771 20.5217C98.4771 21.768 97.72 22.5352 96.2904 22.7359C94.6801 22.9615 94.1038 22.5611 94.1038 21.215C94.1038 20.2106 94.4109 19.0853 94.785 18.7147C96.0747 17.4415 98.4771 18.6167 98.4771 20.5217ZM161.58 18.9595C162.463 20.371 159.309 22.4219 158.096 21.2236C157.523 20.6581 157.349 19.7257 157.708 19.1515C158.495 17.8937 160.84 17.7766 161.58 18.9595ZM198.379 20.1194C200.541 23.528 196.914 29.63 192.726 29.63C189.672 29.63 188.381 27.1979 189.457 23.4695C190.92 18.3939 196.061 16.464 198.379 20.1194ZM228.878 19.6451C229.482 21.2006 227.774 22.8674 225.547 22.8943C224.277 22.9097 223.859 19.8553 224.981 18.7483C226.151 17.5912 228.27 18.079 228.878 19.6451ZM243.229 18.9816C244.295 20.684 242.556 22.9087 240.16 22.9087C238.344 22.9087 237.879 22.5256 238.321 21.3897C238.645 20.5544 238.91 19.4742 238.91 18.9893C238.91 17.8466 242.516 17.8399 243.229 18.9816ZM260.311 20.0647C262.389 23.8996 258.855 29.63 254.413 29.63C250.168 29.63 249.205 24.8857 252.587 20.6379C255.021 17.5807 258.813 17.2993 260.311 20.0647ZM83.3988 24.109C83.4085 25.2698 82.6543 25.7893 80.9584 25.7893C78.5191 25.7893 78.5132 25.771 80.0847 22.7685C81.3034 20.4401 81.8623 20.0551 82.5251 21.0882C82.9974 21.8256 83.39 23.1843 83.3988 24.109ZM160.19 28.7159C160.19 30.2282 156.862 30.594 155.484 29.2335C154.287 28.0495 154.257 27.5474 155.31 26.2934C156.464 24.9203 156.748 24.929 158.385 26.3942C159.379 27.2814 160.19 28.3261 160.19 28.7159ZM228.045 26.9895C227.818 28.5661 226.976 29.2354 224.927 29.4668C222.646 29.7241 222.237 29.4841 222.741 28.1878C223.082 27.3102 223.361 26.1954 223.361 25.7105C223.361 25.2256 224.484 24.8291 225.858 24.8291C227.892 24.8291 228.298 25.2305 228.045 26.9895Z" fill="#009AD6"/>
</svg>
