<svg width="20" height="20" viewBox="0 0 20 20" fill="none" xmlns="http://www.w3.org/2000/svg">
<path id="Vector" d="M19.9994 14.9562V17.9562C20.0006 18.2347 19.9435 18.5104 19.832 18.7656C19.7204 19.0208 19.5567 19.2498 19.3515 19.4381C19.1463 19.6264 18.904 19.7697 18.6402 19.8589C18.3764 19.9482 18.0968 19.9813 17.8194 19.9562C14.7423 19.6219 11.7864 18.5704 9.18944 16.8862C6.77327 15.3509 4.72478 13.3024 3.18945 10.8862C1.49942 8.27743 0.447688 5.30722 0.119445 2.21623C0.0944553 1.9397 0.12732 1.66099 0.215945 1.39785C0.304571 1.13472 0.447016 0.892919 0.634211 0.687851C0.821406 0.482783 1.04925 0.318939 1.30324 0.206752C1.55722 0.0945643 1.83179 0.0364912 2.10945 0.0362298H5.10945C5.59475 0.0314533 6.06524 0.203308 6.43321 0.519762C6.80118 0.836217 7.04152 1.27568 7.10944 1.75623C7.23607 2.7163 7.47089 3.65896 7.80945 4.56623C7.94399 4.92415 7.97311 5.31314 7.89335 5.68711C7.8136 6.06108 7.62831 6.40434 7.35944 6.67623L6.08945 7.94623C7.513 10.4498 9.5859 12.5227 12.0894 13.9462L13.3594 12.6762C13.6313 12.4074 13.9746 12.2221 14.3486 12.1423C14.7225 12.0626 15.1115 12.0917 15.4694 12.2262C16.3767 12.5648 17.3194 12.7996 18.2794 12.9262C18.7652 12.9948 19.2088 13.2394 19.526 13.6137C19.8431 13.988 20.0116 14.4658 19.9994 14.9562Z" fill="#009AD6"/>
</svg>
